<svg width="17" height="16" viewBox="0 0 17 16" fill="none" xmlns="http://www.w3.org/2000/svg">
<g clip-path="url(#clip0_5_13)">
<path d="M16.991 3.56952C17.0077 3.4741 16.9934 3.37624 16.9498 3.2884C16.816 2.74311 16.3907 2.46173 15.6719 2.46173H1.85944C1.22725 2.46173 0.546169 2.67713 0.211233 3.09982C0.182263 3.12025 0.154638 3.14339 0.129686 3.17022C0.0226226 3.28469 -0.0148306 3.43192 0.00909229 3.57076C0.00431104 3.61064 6.10352e-05 3.65077 6.10352e-05 3.69262V11.5702C6.10352e-05 12.386 0.979421 13.2934 1.85944 13.2934H15.6719C16.5522 13.2934 17.0001 12.386 17.0001 11.5702V3.69262C17.0001 3.64905 16.994 3.61088 16.991 3.56952H16.991ZM1.85937 3.44643L15.6719 3.44641H15.6791L8.50001 8.74927L1.34992 3.46808C1.51248 3.44026 1.7125 3.44643 1.85935 3.44643H1.85937ZM15.6719 12.3087H1.8594C1.56642 12.3087 1.06253 11.842 1.06253 11.5702V4.51654L8.15206 9.77311C8.25194 9.85311 8.37597 9.89299 8.50001 9.89299C8.62786 9.89311 8.75148 9.85055 8.84825 9.77311L15.9375 4.51678V11.5702C15.9375 11.842 15.9651 12.3087 15.6719 12.3087Z" fill="black" fill-opacity="0.7"/>
</g>
<defs>
<clipPath id="clip0_5_13">
<rect width="17" height="15.7552" fill="white"/>
</clipPath>
</defs>
</svg>
