<svg width="62" height="47" viewBox="0 0 62 47" fill="none" xmlns="http://www.w3.org/2000/svg">
<path d="M14.0909 46.2711V22.4404L6.66184 15.6792L0 11.9271V42.0656C0 44.3925 1.89511 46.2711 4.22738 46.2711H14.0909Z" fill="#4285F4"/>
<path d="M47.9092 46.2712H57.7727C60.112 46.2712 62.0001 44.3857 62.0001 42.0657V11.9275L54.4545 16.225L47.9092 22.4406V46.2712Z" fill="#34A853"/>
<path d="M14.091 22.4404L13.0801 13.1291L14.091 4.21729L31 16.8335L47.909 4.21729L49.0398 12.648L47.909 22.4404L31 35.0566L14.091 22.4404Z" fill="#EA4335"/>
<path d="M47.9092 4.21733V22.4405L62.0001 11.9272V6.31994C62.0001 1.11942 56.0326 -1.84525 51.8549 1.27362L47.9092 4.21733Z" fill="#FBBC04"/>
<path d="M0 11.9271L6.48069 16.7627L14.0909 22.4405V4.21731L10.1452 1.2736C5.96023 -1.84551 0 1.11941 0 6.31969V11.9269V11.9271Z" fill="#C5221F"/>
</svg>
