<svg width="100" height="100" viewBox="0 0 100 100" fill="none" xmlns="http://www.w3.org/2000/svg">
<g clip-path="url(#clip0_216_12)">
<rect width="100" height="100" rx="50" fill="white"/>
<path fill-rule="evenodd" clip-rule="evenodd" d="M100 0H0V100H100V0ZM22 50.9946C22 35.5276 34.5888 23 50.1314 23C65.6739 23 78.2627 35.5276 78.2627 50.9946C78.2627 63.3472 70.2101 73.8452 59.0982 77.5544C57.6917 77.8344 57.1642 76.9596 57.1642 76.2247C57.1642 75.9088 57.1681 75.362 57.1734 74.6342C57.1838 73.1852 57.1994 71.0185 57.1994 68.5262C57.1994 65.9017 56.3203 64.222 55.3005 63.3472C61.5597 62.6473 68.1354 60.2678 68.1354 49.5249C68.1354 46.4455 67.0453 43.9609 65.252 42.0013C65.5333 41.3015 66.5179 38.432 64.9706 34.5828C64.9706 34.5828 62.6146 33.8129 57.2345 37.4522C54.984 36.8223 52.5928 36.5074 50.2017 36.5074C47.8105 36.5074 45.4193 36.8223 43.1688 37.4522C37.7887 33.8479 35.4327 34.5828 35.4327 34.5828C33.8855 38.432 34.8701 41.3015 35.1514 42.0013C33.358 43.9609 32.2679 46.4805 32.2679 49.5249C32.2679 60.2328 38.8085 62.6473 45.0677 63.3472C44.2589 64.0471 43.5205 65.2718 43.2743 67.0915C41.6568 67.8263 37.6129 69.0161 35.0811 64.7819C34.5536 63.9421 32.9712 61.8775 30.7559 61.9125C28.3999 61.9475 29.8064 63.2422 30.791 63.7671C31.9866 64.432 33.358 66.9165 33.6745 67.7213C34.2371 69.296 36.0657 72.3055 43.1337 71.0107C43.1337 72.5406 43.1487 74.0108 43.1591 75.0326C43.1646 75.5767 43.1688 75.9937 43.1688 76.2247C43.1688 76.9596 42.6414 77.7994 41.2348 77.5544C30.0526 73.8452 22 63.3822 22 50.9946Z" fill="#1B1F23"/>
</g>
<defs>
<clipPath id="clip0_216_12">
<rect width="100" height="100" rx="50" fill="white"/>
</clipPath>
</defs>
</svg>
