<svg width="100" height="100" viewBox="0 0 100 100" fill="none" xmlns="http://www.w3.org/2000/svg">
<g clip-path="url(#clip0_216_7)">
<rect width="100" height="100" rx="50" fill="white"/>
<path fill-rule="evenodd" clip-rule="evenodd" d="M100 0H0V100H100V0ZM23 26.9141C23 24.7536 24.8087 23 27.0383 23H73.6024C75.8328 23 77.6407 24.7536 77.6407 26.9141V73.7273C77.6407 75.8883 75.8328 77.6407 73.6024 77.6407H27.0383C24.8089 77.6407 23 75.8885 23 73.7279V26.9141ZM39.6043 68.7272V44.1278H31.4279V68.7272H39.6043ZM35.5178 40.7697C38.3685 40.7697 40.1433 38.8808 40.1433 36.5201C40.0899 34.1057 38.3685 32.2695 35.572 32.2695C32.7736 32.2695 30.9459 34.1057 30.9459 36.5199C30.9459 38.8806 32.72 40.7695 35.4642 40.7695L35.5178 40.7697ZM44.1301 68.7272H52.3059V54.9912C52.3059 54.257 52.3593 53.5209 52.5753 52.9964C53.1661 51.5269 54.5114 50.0057 56.7707 50.0057C59.7285 50.0057 60.9125 52.2613 60.9125 55.5686V68.7272H69.0881V54.6226C69.0881 47.0671 65.0549 43.5511 59.6756 43.5511C55.3387 43.5511 53.3935 45.9348 52.3066 47.6106V44.1286H44.1306C44.2373 46.4363 44.1301 68.7272 44.1301 68.7272Z" fill="#006699"/>
</g>
<defs>
<clipPath id="clip0_216_7">
<rect width="100" height="100" rx="50" fill="white"/>
</clipPath>
</defs>
</svg>
