<svg width="79" height="79" viewBox="0 0 79 79" fill="none" xmlns="http://www.w3.org/2000/svg">
<path d="M78.0782 59.0148C77.3817 64.3079 74.7822 69.1665 70.7653 72.6831C66.7484 76.1996 61.5887 78.1338 56.25 78.1242C25.2344 78.1242 3.53463e-05 52.8898 3.53463e-05 21.8742C-0.00953489 16.5355 1.92459 11.3759 5.44118 7.35896C8.95777 3.34205 13.8163 0.742595 19.1094 0.0460845C20.4479 -0.117349 21.8034 0.156483 22.9734 0.826703C24.1435 1.49692 25.0654 2.52759 25.6016 3.76483L33.8516 22.1828V22.2297C34.2621 23.1768 34.4316 24.2108 34.3451 25.2394C34.2585 26.2679 33.9185 27.2591 33.3555 28.1242C33.2852 28.2297 33.211 28.3273 33.1328 28.425L25 38.0656C27.9258 44.0109 34.1446 50.175 40.168 53.1086L49.6758 45.0187C49.7692 44.9403 49.867 44.8672 49.9688 44.8C50.8332 44.2234 51.8277 43.8715 52.8624 43.776C53.8971 43.6805 54.9392 43.8445 55.8946 44.2531L55.9453 44.2766L74.3477 52.5226C75.5871 53.0569 76.6203 53.978 77.2927 55.1483C77.9652 56.3185 78.2407 57.675 78.0782 59.0148ZM50 31.2492H65.625C66.4538 31.2492 67.2487 30.92 67.8347 30.3339C68.4208 29.7479 68.75 28.953 68.75 28.1242C68.75 27.2954 68.4208 26.5006 67.8347 25.9145C67.2487 25.3285 66.4538 24.9992 65.625 24.9992H57.5469L70.961 11.5851C71.5474 10.9988 71.8768 10.2035 71.8768 9.37421C71.8768 8.54495 71.5474 7.74965 70.961 7.16327C70.3746 6.57689 69.5793 6.24747 68.75 6.24747C67.9208 6.24747 67.1255 6.5769 66.5391 7.16327L53.125 20.5812V12.4992C53.125 11.6704 52.7958 10.8756 52.2097 10.2895C51.6237 9.70345 50.8288 9.37421 50 9.37421C49.1712 9.37421 48.3764 9.70345 47.7903 10.2895C47.2043 10.8756 46.875 11.6704 46.875 12.4992V28.1242C46.875 28.953 47.2043 29.7479 47.7903 30.3339C48.3764 30.92 49.1712 31.2492 50 31.2492Z" fill="#282828"/>
</svg>
