<svg width="100" height="100" viewBox="0 0 100 100" fill="none" xmlns="http://www.w3.org/2000/svg">
<g clip-path="url(#clip0_216_17)">
<rect width="100" height="100" rx="50" fill="white"/>
<path fill-rule="evenodd" clip-rule="evenodd" d="M100 0H0V100H100V0ZM50.3203 77.6407C65.4089 77.6407 77.6407 65.4089 77.6407 50.3203C77.6407 35.2318 65.4089 23 50.3203 23C35.2318 23 23 35.2318 23 50.3203C23 65.4089 35.2318 77.6407 50.3203 77.6407ZM33.3819 52.2358C33.3819 52.2358 31.5045 51.0195 34.7118 49.722C34.7118 49.722 48.2449 43.9645 52.9384 41.9372C54.7376 41.1263 60.8392 38.5313 60.8392 38.5313C60.8392 38.5313 63.6554 37.3961 63.4207 40.1532C63.3642 40.9731 63.0221 43.2731 62.6007 46.1065C62.4386 47.1966 62.2647 48.3657 62.0909 49.5598C61.1521 55.6417 60.1352 62.2911 60.1352 62.2911C60.1352 62.2911 59.9787 64.1563 58.6489 64.4806C57.3191 64.805 55.1287 63.3454 54.7376 63.021C54.6697 62.9682 54.3551 62.7551 53.8832 62.4355C52.1803 61.282 48.4294 58.7415 46.8368 57.3446C46.2892 56.858 45.6634 55.885 46.915 54.7497C49.7311 52.0736 53.0948 48.7489 55.1287 46.6406C56.0675 45.6674 57.0061 43.3969 53.0948 46.1539C47.5408 50.1274 42.065 53.8577 42.065 53.8577C42.065 53.8577 40.8134 54.6685 38.4666 53.9387C36.1198 53.209 33.3819 52.2358 33.3819 52.2358Z" fill="#34AADF"/>
</g>
<defs>
<clipPath id="clip0_216_17">
<rect width="100" height="100" rx="50" fill="white"/>
</clipPath>
</defs>
</svg>
